<svg width="56" height="56" viewBox="0 0 56 56" fill="none" xmlns="http://www.w3.org/2000/svg">
<path d="M25.6673 11.667V20.627M18.6673 11.667H32.6673" stroke="#0A4B88" stroke-width="1.86667" stroke-linecap="round" stroke-linejoin="round"/>
<path d="M7 21.0001V39.6671M39.667 25.6671H34.113C33.678 25.6706 33.2508 25.5522 32.8796 25.3253C32.5085 25.0985 32.2083 24.7723 32.013 24.3836L30.987 22.2836C30.7917 21.8949 30.4915 21.5687 30.1204 21.3419C29.7492 21.115 29.322 20.9966 28.887 21.0001H22.447C22.0121 20.9966 21.5848 21.115 21.2137 21.3419C20.8426 21.5687 20.5423 21.8949 20.347 22.2836L19.32 24.3836C19.1247 24.7723 18.8245 25.0985 18.4533 25.3253C18.0822 25.5522 17.655 25.6706 17.22 25.6671H7V35.0001H37.333C37.6394 34.9999 37.9429 35.0602 38.2261 35.1773C38.5093 35.2945 38.7666 35.4663 38.9833 35.683C39.2001 35.8996 39.372 36.1569 39.4893 36.44C39.6067 36.7231 39.667 37.0266 39.667 37.333V42.0001C39.667 42.6188 39.9128 43.2122 40.3503 43.6497C40.7879 44.0872 41.3813 44.333 42 44.333H46.667C47.2858 44.333 47.8792 44.0872 48.3167 43.6497C48.7542 43.2122 49 42.6188 49 42.0001V35.0001C49 32.5248 48.0167 30.1509 46.2664 28.4007C44.5162 26.6504 42.1423 25.6671 39.667 25.6671Z" stroke="#0A4B88" stroke-width="1.86667" stroke-linecap="round" stroke-linejoin="round"/>
</svg>
