<svg width="56" height="56" viewBox="0 0 56 56" fill="none" xmlns="http://www.w3.org/2000/svg">
<path d="M43.1719 11.927C44.9024 14.6054 45.7334 17.1449 45.7334 20.0002C45.7334 24.2261 44.012 28.2743 39.5898 32.9573C37.0407 35.6406 34.5885 38.4952 32.7715 41.4436C30.9564 44.3888 29.7334 47.495 29.7334 50.6672C29.7334 51.2202 29.7987 51.7755 29.8936 52.3391C28.1634 49.661 27.333 47.1219 27.333 44.2668C27.333 40.0403 29.0539 35.9908 33.4775 31.3069C36.0259 28.6243 38.4774 25.771 40.2939 22.8235C42.109 19.8782 43.333 16.7721 43.333 13.5999C43.333 13.0466 43.2668 12.4909 43.1719 11.927ZM33.3047 3.6604C35.0353 6.33892 35.8662 8.87822 35.8662 11.7336C35.8662 15.9596 34.145 20.0076 29.7227 24.6907C27.1736 27.3739 24.7223 30.2287 22.9053 33.177C21.0903 36.1221 19.8663 39.2276 19.8662 42.3997C19.8662 42.9528 19.9325 43.5087 20.0273 44.0725C18.2971 41.3943 17.4668 38.8553 17.4668 36.0002C17.4668 31.7738 19.1878 27.725 23.6113 23.0413L23.6104 23.0403C26.1588 20.3576 28.6111 17.5046 30.4277 14.5569C32.2428 11.6116 33.4668 8.50548 33.4668 5.33325C33.4668 4.77993 33.3996 4.22436 33.3047 3.6604ZM22.251 3.88989C23.1883 5.6274 23.5996 7.42297 23.5996 9.06665C23.5996 12.2084 22.1619 15.192 19.0469 18.5667C17.1656 20.5826 15.3189 22.7678 13.9385 25.011C12.5621 27.2476 11.5996 29.6218 11.5996 32.0002C11.5996 32.0889 11.6043 32.1799 11.6094 32.2727C10.6449 30.4932 10.2667 28.7733 10.2666 27.2004C10.2666 24.0598 11.7017 21.0756 14.8145 17.7024L14.8154 17.7034C16.6979 15.6865 18.5465 13.5006 19.9277 11.2561C21.3041 9.01952 22.2666 6.6453 22.2666 4.26685C22.2666 4.14518 22.2604 4.01893 22.251 3.88989Z" stroke="#0A4B88" stroke-width="1.86667"/>
</svg>
