<svg width="56" height="56" viewBox="0 0 56 56" fill="none" xmlns="http://www.w3.org/2000/svg">
<mask id="mask0_2074_32779" style="mask-type:luminance" maskUnits="userSpaceOnUse" x="0" y="0" width="56" height="56">
<path d="M0 0H56V56H0V0Z" fill="white"/>
</mask>
<g mask="url(#mask0_2074_32779)">
<path d="M44.4062 54.3594H9.40625V51.9531C9.40625 49.5369 11.365 47.5781 13.7812 47.5781H40.0312C42.4475 47.5781 44.4062 49.5369 44.4062 51.9531V54.3594Z" stroke="#0A4B88" stroke-width="1.86667" stroke-miterlimit="10" stroke-linecap="round" stroke-linejoin="round"/>
<path d="M42.7662 37.7344H47.0498C48.6739 37.7344 50.0537 36.5461 50.2948 34.9398L53.123 16.0846C53.1455 15.9346 53.1568 15.7832 53.1568 15.6315C53.1568 13.9452 51.7896 12.5781 50.1034 12.5781H41.3686" stroke="#0A4B88" stroke-width="1.86667" stroke-miterlimit="10"/>
<path d="M41.3546 12.3354C41.2257 10.0171 39.3083 8.20312 36.9864 8.20312H16.8261C14.5042 8.20312 12.5867 10.0171 12.4579 12.3354L12.4445 12.5781H2.84375L11.9392 21.6735L10.6924 44.1149C10.5879 45.9957 12.0848 47.5781 13.9686 47.5781H39.8439C41.7277 47.5781 43.2246 45.9957 43.1201 44.1149L41.3546 12.3354Z" stroke="#0A4B88" stroke-width="1.86667" stroke-miterlimit="10"/>
<path d="M21.4375 41.0156C19.6254 41.0156 18.1562 39.5465 18.1562 37.7344V18.0469C18.1562 16.2347 19.6254 14.7656 21.4375 14.7656C23.2496 14.7656 24.7188 16.2347 24.7188 18.0469V37.7344C24.7188 39.5465 23.2496 41.0156 21.4375 41.0156Z" stroke="#0A4B88" stroke-width="1.86667" stroke-miterlimit="10" stroke-linecap="round" stroke-linejoin="round"/>
<path d="M32.9219 24.6094C32.9219 25.5154 32.1873 26.25 31.2813 26.25C30.3752 26.25 29.6406 25.5154 29.6406 24.6094C29.6406 23.7033 30.3752 22.9687 31.2813 22.9687C32.1873 22.9687 32.9219 23.7033 32.9219 24.6094Z" fill="#0A4B88"/>
<path d="M32.9219 18.0469C32.9219 18.9529 32.1873 19.6875 31.2813 19.6875C30.3752 19.6875 29.6406 18.9529 29.6406 18.0469C29.6406 17.1408 30.3752 16.4062 31.2813 16.4062C32.1873 16.4062 32.9219 17.1408 32.9219 18.0469Z" fill="#0A4B88"/>
<path d="M32.9219 31.1719C32.9219 32.0779 32.1873 32.8125 31.2813 32.8125C30.3752 32.8125 29.6406 32.0779 29.6406 31.1719C29.6406 30.2658 30.3752 29.5312 31.2813 29.5312C32.1873 29.5312 32.9219 30.2658 32.9219 31.1719Z" fill="#0A4B88"/>
<path d="M32.9219 37.7344C32.9219 38.6404 32.1873 39.375 31.2813 39.375C30.3752 39.375 29.6406 38.6404 29.6406 37.7344C29.6406 36.8283 30.3752 36.0937 31.2813 36.0937C32.1873 36.0937 32.9219 36.8283 32.9219 37.7344Z" fill="#0A4B88"/>
<path d="M32.375 1.64062H21.4375C19.0213 1.64062 17.0625 3.59942 17.0625 6.01562V8.20312H36.75V6.01562C36.75 3.59942 34.7912 1.64062 32.375 1.64062Z" stroke="#0A4B88" stroke-width="1.86667" stroke-miterlimit="10" stroke-linecap="round" stroke-linejoin="round"/>
</g>
</svg>
